HIERARCHY
ROOT Hips
{
    OFFSET 0.000000 0.000000 0.000000
    CHANNELS 6 Xposition Yposition Zposition Zrotation Xrotation Yrotation
        JOINT Chest
        {
            OFFSET -0.000000 32.910728 -0.000000
            CHANNELS 3 Zrotation Xrotation Yrotation
            JOINT Neck
            {
                OFFSET -0.000000 24.872103 0.000000
                CHANNELS 3 Zrotation Xrotation Yrotation
                JOINT Head
                {
                    OFFSET -0.000000 10.694444 0.000000
                    CHANNELS 3 Zrotation Xrotation Yrotation
                    End Site
                    {
                        OFFSET -0.000000 16.527781 0.000000
                    }
                }
            }
            JOINT LeftCollar
            {
                OFFSET -0.000000 24.872103 0.000000
                CHANNELS 3 Zrotation Xrotation Yrotation
                JOINT LeftShoulder
                {
                    OFFSET 20.500000 -0.000000 0.000000
                    CHANNELS 3 Zrotation Xrotation Yrotation
                    JOINT LeftElbow
                    {
                        OFFSET 20.261999 0.000000 0.000000
                        CHANNELS 3 Zrotation Xrotation Yrotation
                        JOINT LeftWrist
                        {
                            OFFSET 25.372869 0.000000 0.000000
                            CHANNELS 3 Zrotation Xrotation Yrotation
                            End Site
                            {
                                OFFSET 0.000000 -14.583331 0.000000
                            }
                        }
                    }
                }
            }
            JOINT RightCollar
            {
                OFFSET -0.000000 24.872103 0.000000
                CHANNELS 3 Zrotation Xrotation Yrotation
                JOINT RightShoulder
                {
                    OFFSET -20.500000 0.000000 0.000000
                    CHANNELS 3 Zrotation Xrotation Yrotation
                    JOINT RightElbow
                    {
                        OFFSET -20.261999 0.000000 0.000000
                        CHANNELS 3 Zrotation Xrotation Yrotation
                        JOINT RightWrist
                        {
                            OFFSET -25.372869 0.000000 0.000000
                            CHANNELS 3 Zrotation Xrotation Yrotation
                            End Site
                            {
                                OFFSET -0.000000 -14.583331 0.000000
                            }
                        }
                    }
                }
            }
        }
    JOINT LeftHip
    {
        OFFSET 11.666668 0.000000 0.000000
        CHANNELS 3 Zrotation Xrotation Yrotation
        JOINT LeftKnee
        {
            OFFSET -0.000000 -37.459236 0.000000
            CHANNELS 3 Zrotation Xrotation Yrotation
            JOINT LeftAnkle
            {
                OFFSET -0.000000 -38.972313 0.000000
                CHANNELS 3 Zrotation Xrotation Yrotation
                End Site
                {
                    OFFSET -0.000000 -4.861111 16.527781
                }
            }
        }
    }
    JOINT RightHip
    {
        OFFSET -11.666668 0.000000 0.000000
        CHANNELS 3 Zrotation Xrotation Yrotation
        JOINT RightKnee
        {
            OFFSET -0.000000 -37.459236 0.000000
            CHANNELS 3 Zrotation Xrotation Yrotation
            JOINT RightAnkle
            {
                OFFSET -0.000000 -38.972313 0.000000
                CHANNELS 3 Zrotation Xrotation Yrotation
                End Site
                {
                    OFFSET -0.000000 -4.861111 16.527781
                }
            }
        }
    }
}
MOTION
Frames:    8
Frame Time:    0.010000
-42.857475    84.941025    -34.077705    0.849425    -3.416387    24.651688    1.000397    19.012045    0.070340    2.143110    -13.306808    3.714133    -2.715035    1.841910    3.529300    -25.060877    -1.004510    4.643113    49.037228    61.324284    -112.454140    33.170082    -8.265569    -27.274029    74.725739    32.542007    131.346283    28.165462    -3.996105    -15.725118    7.023575    52.632229    50.002357    -5.771576    -3.923926    67.859085    -108.561966    17.739437    19.267874    1.912790    -9.219151    4.853191    -1.859820    36.687298    3.171053    -1.911749    -4.872883    10.580830    -7.997287    -10.352153    5.206336    -2.629390    26.801954    4.039419    10.126776    -10.071149    2.307972    
-42.775543    84.948441    -34.222282    0.706886    -3.250942    24.648762    0.894257    18.932743    0.121846    1.760071    -13.841419    3.653354    -3.150179    2.728457    3.515927    -25.085510    -1.006514    4.657489    49.509701    61.138420    -112.955017    33.390095    -8.277509    -26.876232    73.412224    32.255615    132.233765    28.094885    -3.947301    -15.612676    7.478215    52.508820    49.661766    -5.548004    -3.633311    67.796448    -108.549202    17.714083    19.652212    1.889748    -9.389503    4.833320    -1.894517    36.516140    3.132206    -1.801430    -4.843142    10.580309    -8.035353    -10.462155    5.274145    -2.591725    26.518969    4.019766    10.142058    -9.804100    2.118943    
-42.670898    84.956787    -34.322594    0.688367    -3.302775    24.653206    0.733496    19.007288    0.134840    1.946647    -13.499799    3.712398    -3.746962    2.188389    3.553300    -25.142731    -1.045511    4.580259    48.449429    61.520317    -112.044601    33.169914    -8.101220    -26.616713    72.983757    30.527990    131.897217    28.137260    -3.930090    -15.686510    6.831892    52.702881    50.293503    -5.535394    -3.692913    67.593178    -109.252998    17.703127    19.847391    1.813950    -9.310898    4.953111    -1.797936    36.381172    3.011647    -1.720002    -4.813603    10.550689    -8.081143    -10.337740    5.024570    -2.735884    26.195969    3.627860    10.363472    -9.466389    2.778648    
-42.607727    84.971062    -34.411118    0.638472    -3.276134    24.647478    0.640414    19.025541    0.171634    1.894284    -13.544229    3.720867    -3.867509    2.290978    3.573483    -25.169390    -1.027793    4.544696    48.238499    61.584583    -111.897812    33.088184    -8.006703    -26.402161    72.490623    29.646479    132.057510    28.111160    -3.958366    -15.684318    6.742112    52.757698    50.451813    -5.569896    -3.686497    67.404419    -109.389832    17.615683    20.034773    1.781520    -9.322198    4.998968    -1.783825    36.267906    2.964859    -1.647005    -4.800768    10.538079    -8.112405    -10.323228    4.947865    -2.780564    25.981211    3.445050    10.476907    -9.237047    3.009326    
-42.538269    84.988609    -34.508007    0.587129    -3.256266    24.634579    0.552697    19.058979    0.220769    1.819950    -13.578863    3.760095    -3.977849    2.387565    3.628082    -25.207623    -1.010989    4.550962    47.948330    61.630325    -111.689743    33.043602    -7.915208    -26.067694    71.993599    28.548107    132.164673    28.089046    -3.931640    -15.622979    6.695062    52.792900    50.516247    -5.437747    -3.562700    67.281784    -109.763519    17.551247    20.221083    1.748477    -9.317993    5.062201    -1.768777    36.137238    2.905691    -1.563908    -4.793922    10.528527    -8.145484    -10.299634    4.865981    -2.832937    25.749744    3.283692    10.621041    -8.989669    3.230466    
-42.464497    85.008171    -34.609150    0.536802    -3.247480    24.612745    0.423737    19.124950    0.295898    1.789123    -13.678485    3.707904    -4.188562    2.529875    3.583740    -25.226007    -0.978056    4.378741    47.703819    61.708366    -111.540062    32.961384    -7.793386    -25.720612    71.552803    27.314327    132.233139    28.073965    -3.947963    -15.744154    6.632051    52.743225    50.678555    -5.381217    -3.542687    67.051552    -109.973473    17.371389    20.496145    1.716827    -9.292430    5.148980    -1.748562    35.991631    2.827700    -1.473939    -4.796176    10.522960    -8.177333    -10.264074    4.786207    -2.892272    25.511242    3.169578    10.796457    -8.737334    3.413020    
-42.388779    85.028450    -34.711132    0.488424    -3.251697    24.581856    0.311403    19.203396    0.382748    1.688886    -13.709815    3.791819    -4.267674    2.622819    3.690193    -25.282747    -1.002269    4.434659    47.294960    61.763081    -111.234268    32.925705    -7.671421    -25.272833    71.160767    25.961098    132.240707    28.037748    -3.917278    -15.602853    6.610463    52.787491    50.723629    -5.272676    -3.421731    66.854370    -110.232483    17.181122    20.742832    1.688364    -9.244071    5.261741    -1.719245    35.834496    2.727949    -1.381060    -4.809174    10.520532    -8.204822    -10.216566    4.716114    -2.956053    25.273670    3.107641    10.999653    -8.488771    3.545764    
-42.313679    85.048225    -34.811745    0.441554    -3.268011    24.542559    0.180604    19.313730    0.491783    1.654231    -13.806972    3.766676    -4.498674    2.750962    3.673360    -25.320040    -0.965430    4.277794    46.879971    61.856186    -110.902519    32.739281    -7.502987    -24.984138    70.903946    24.679905    132.219971    28.014290    -3.939777    -15.683324    6.571378    52.732075    50.867706    -5.221082    -3.413962    66.562477    -110.391342    16.909132    20.996851    1.664473    -9.176388    5.399354    -1.678453    35.670448    2.607530    -1.289084    -4.833070    10.519550    -8.225476    -10.161182    4.662753    -3.020471    25.043909    3.081112    11.223989    -8.248083    3.638469    
